<svg xmlns="http://www.w3.org/2000/svg" viewBox="0 0 16.25 16"><defs><style>.a{fill:#464e51;}</style></defs><path class="a" d="M17.5-17H16.25V-5.5a1.222,1.222,0,0,1-.146.586,1.535,1.535,0,0,1-.4.477,1.963,1.963,0,0,1-.6.32A2.243,2.243,0,0,1,14.375-4h-10a2.243,2.243,0,0,1-.732-.117,1.963,1.963,0,0,1-.6-.32,1.535,1.535,0,0,1-.4-.477A1.222,1.222,0,0,1,2.5-5.5V-17H1.25v-1h5v-1a.8.8,0,0,1,.1-.391,1.04,1.04,0,0,1,.269-.316,1.322,1.322,0,0,1,.4-.215A1.477,1.477,0,0,1,7.5-20h3.75a1.477,1.477,0,0,1,.488.078,1.322,1.322,0,0,1,.4.215,1.04,1.04,0,0,1,.269.316.8.8,0,0,1,.1.391v1h5Zm-10-1h3.75v-1H7.5ZM15-17H3.75V-5.5a.44.44,0,0,0,.186.352A.682.682,0,0,0,4.375-5h10a.682.682,0,0,0,.439-.148A.44.44,0,0,0,15-5.5ZM7.5-7H6.25v-8H7.5ZM10-7H8.75v-8H10Zm2.5,0H11.25v-8H12.5Z" transform="translate(-1.25 20)"/></svg>