<svg xmlns="http://www.w3.org/2000/svg" viewBox="0 0 155.5 37"><defs><style>.a{fill:#464e51;}.a,.b{font-size:21px;font-family:Roboto-Regular, Roboto;letter-spacing:0.025em;}.b,.d{fill:#27c063;}.c,.e{fill:#fff;}.c{stroke:#27c063;}.f{stroke:none;}.g{fill:none;}</style></defs><g transform="translate(-16.5 -10.5)"><g transform="translate(-33 -19)"><text class="a" transform="translate(91 55)"><tspan x="0" y="0">Property</tspan></text><text class="b" transform="translate(174 55)"><tspan x="0" y="0">p</tspan></text><text class="a" transform="translate(185 55)"><tspan x="0" y="0">ro</tspan></text><g transform="translate(-861.5 -135.5)"><g class="c" transform="translate(911 165)"><circle class="f" cx="18.5" cy="18.5" r="18.5"/><circle class="g" cx="18.5" cy="18.5" r="18"/></g><path class="d" d="M9.25,0A9.463,9.463,0,0,1,18.5,9.662a38.813,38.813,0,0,1-.973,7.058c-1.431,6.842-4.6,16.006-8.277,16.006C4.141,32.726,0,15,0,9.662A9.463,9.463,0,0,1,9.25,0Z" transform="translate(920.25 166.85)"/><circle class="e" cx="3.7" cy="3.7" r="3.7" transform="translate(925.8 173.182)"/></g></g></g></svg>