<svg width="32" height="32" viewBox="0 0 32 32" fill="none" xmlns="http://www.w3.org/2000/svg">
<path fill-rule="evenodd" clip-rule="evenodd" d="M18.1714 16.0006L31.5528 2.61915C32.1522 2.01974 32.1522 1.04799 31.5528 0.448582C30.9534 -0.15083 29.9816 -0.15083 29.3822 0.448582L16.0008 13.83L2.61939 0.450628C2.01998 -0.148784 1.04824 -0.148784 0.448826 0.450628C-0.150585 1.05004 -0.150585 2.02178 0.448826 2.62119L13.8302 16.0026L0.450872 29.382C-0.14854 29.9814 -0.14854 30.9531 0.450872 31.5525C0.751601 31.8512 1.14234 32.0026 1.53513 32.0026C1.92792 32.0026 2.32071 31.8533 2.61939 31.5525L16.0008 18.1711L29.3822 31.5525C29.6829 31.8512 30.0737 32.0026 30.4665 32.0026C30.8593 32.0026 31.252 31.8533 31.5507 31.5525C32.1501 30.9531 32.1501 29.9814 31.5507 29.382L18.1714 16.0006Z" fill="#1D87A3"/>
</svg>
