<svg xmlns="http://www.w3.org/2000/svg" viewBox="0 0 26 26"><defs><style>.a{fill:#E8E9EA;}.b{fill:#27c063;}</style></defs><g transform="translate(96 -7835)"><rect class="a" width="26" height="26" transform="translate(-96 7835)"/><path class="b" d="M25.837,23.563,20.475,18.2a11.126,11.126,0,0,0,2.275-6.825A11.3,11.3,0,0,0,11.375,0,11.3,11.3,0,0,0,0,11.375,11.3,11.3,0,0,0,11.375,22.75,11.126,11.126,0,0,0,18.2,20.475l5.363,5.363ZM3.25,11.375A8.046,8.046,0,0,1,11.375,3.25,8.046,8.046,0,0,1,19.5,11.375,8.046,8.046,0,0,1,11.375,19.5,8.046,8.046,0,0,1,3.25,11.375Z" transform="translate(-96 7835)"/></g></svg>